<svg width="296" height="304" viewBox="0 0 296 304" fill="none" xmlns="http://www.w3.org/2000/svg">
<path d="M10.8001 79.6359C10.8001 71.7322 15.8627 64.7172 23.3639 62.2269C34.4341 58.5517 46.0778 66.0064 47.3734 77.5985L50.2355 103.208V149.372V233.249C50.2355 239.74 46.2421 245.562 40.1868 247.899C34.4359 250.119 27.9182 248.769 23.5224 244.447L18.6577 239.665C13.6312 234.723 10.8001 227.97 10.8001 220.921V155.27V79.6359Z" fill="#0051B8"/>
<path d="M56.0612 77.3799C56.0612 88.6116 46.0294 97.7167 33.6547 97.7167C21.28 97.7167 11.2482 88.6116 11.2482 77.3799C10.8001 66.2896 21.28 56.3246 33.6547 56.3246C53.5964 55.7145 56.0612 66.1482 56.0612 77.3799Z" fill="#0051B8"/>
<path d="M168.99 43.919L168.99 79.8202L168.99 115.41L70.4013 43.919L168.99 43.919Z" fill="#0051B8"/>
<path d="M89.7325 259.598L89.7326 223.089L89.7326 187.703L188.707 259.598L89.7325 259.598Z" fill="#0051B8"/>
<path d="M232.431 206.109C234.914 208.102 236.907 210.55 238.282 213.296L243.664 224.045C251.747 240.187 231.941 256.47 215.147 247.491L207.081 241.905L203.799 239.261L102.882 158.167L20.6614 91.7192C11.4062 84.2395 11.3647 71.0362 20.5719 63.2578C21.845 62.1822 23.2557 61.2505 24.7724 60.4835L25.2123 60.261C34.5762 55.5255 46.1133 56.609 54.0386 62.9682L232.431 206.109Z" fill="#0051B8"/>
<rect x="168.542" y="44.0273" width="41.676" height="35.7928" fill="#0051B8"/>
<path d="M206.184 69.5104C206.184 63.0442 210.508 57.3763 216.744 55.6666C218.587 55.1612 220.513 55.0291 222.408 55.278L224.749 55.5853C237.716 57.2882 247.412 68.3406 247.412 81.4197V229.426C247.412 233.884 245.923 238.214 243.18 241.729L243.004 241.954C240.903 244.646 238.114 246.721 234.932 247.959C231.948 249.119 228.719 249.505 225.546 249.081L218.125 248.088C212.651 247.356 208.145 243.424 206.679 238.1C206.351 236.909 206.184 235.68 206.184 234.444V69.5104Z" fill="#0051B8"/>
<path d="M247.188 73.5157C249.429 90.5987 231.615 77.3797 220.973 77.3797C210.33 77.3797 201.703 70.9151 201.703 62.9406C201.703 54.966 199.911 42.4954 212.458 44.2307C228.431 46.4397 246.292 59.6867 247.188 73.5157Z" fill="#0051B8"/>
<path d="M48.8911 223.805H89.8949V259.598H48.8911V223.805Z" fill="#0051B8"/>
<path d="M11.0242 228.781C9.27699 211.651 27.5177 226.209 38.1563 226.462C48.7949 226.715 66.5981 243.383 66.3681 251.355C65.4718 259.49 56.2852 260.1 45.5301 259.49C29.4041 258.575 11.5213 242.627 11.0242 228.781Z" fill="#0051B8"/>
</svg>
